<svg width="799pt" height="139pt" viewBox="0.00 0.00 799.16 138.69" xmlns="http://www.w3.org/2000/svg" xmlns:xlink="http://www.w3.org/1999/xlink">
<g id="graph0" class="graph" transform="scale(1 1) rotate(0) translate(4 134.69)">
<title>finite_state_machine</title>
<polygon fill="white" stroke="none" points="-4,4 -4,-134.69 795.16,-134.69 795.16,4 -4,4"/>
<!-- start -->
<g id="node1" class="node">
<title>start</title>
<text text-anchor="middle" x="27" y="-40.49" font-family="Times,serif" font-size="14.00">start</text>
</g>
<!-- 12 -->
<g id="node12" class="node">
<title>12</title>
<ellipse fill="none" stroke="black" cx="111.69" cy="-44.69" rx="20.69" ry="20.69"/>
<text text-anchor="middle" x="111.69" y="-40.49" font-family="Times,serif" font-size="14.00">12</text>
</g>
<!-- start&#45;&gt;12 -->
<g id="edge1" class="edge">
<title>start-&gt;12</title>
<path fill="none" stroke="black" d="M53.71,-44.69C61.77,-44.69 70.75,-44.69 79.16,-44.69"/>
<polygon fill="black" stroke="black" points="79,-48.19 89,-44.69 79,-41.19 79,-48.19"/>
</g>
<!-- 0 -->
<g id="node2" class="node">
<title>0</title>
<ellipse fill="none" stroke="black" cx="200.08" cy="-85.69" rx="18" ry="18"/>
<text text-anchor="middle" x="200.08" y="-81.49" font-family="Times,serif" font-size="14.00">0</text>
</g>
<!-- 1 -->
<g id="node3" class="node">
<title>1</title>
<ellipse fill="none" stroke="black" cx="285.77" cy="-85.69" rx="18" ry="18"/>
<text text-anchor="middle" x="285.77" y="-81.49" font-family="Times,serif" font-size="14.00">1</text>
</g>
<!-- 0&#45;&gt;1 -->
<g id="edge2" class="edge">
<title>0-&gt;1</title>
<path fill="none" stroke="black" d="M218.42,-85.69C229.31,-85.69 243.61,-85.69 256.14,-85.69"/>
<polygon fill="black" stroke="black" points="255.94,-89.19 265.94,-85.69 255.94,-82.19 255.94,-89.19"/>
<text text-anchor="middle" x="246.27" y="-89.89" font-family="Times,serif" font-size="14.00">0</text>
</g>
<!-- 8 -->
<g id="node10" class="node">
<title>8</title>
<ellipse fill="none" stroke="black" cx="364.77" cy="-85.69" rx="18" ry="18"/>
<text text-anchor="middle" x="364.77" y="-81.49" font-family="Times,serif" font-size="14.00">8</text>
</g>
<!-- 1&#45;&gt;8 -->
<g id="edge3" class="edge">
<title>1-&gt;8</title>
<path fill="none" stroke="red" d="M304.25,-85.69C313.3,-85.69 324.6,-85.69 334.91,-85.69"/>
<polygon fill="red" stroke="red" points="334.86,-89.19 344.86,-85.69 334.86,-82.19 334.86,-89.19"/>
<text text-anchor="middle" x="325.27" y="-89.89" font-family="Times,serif" font-size="14.00">ε</text>
</g>
<!-- 2 -->
<g id="node4" class="node">
<title>2</title>
<ellipse fill="none" stroke="black" cx="443.77" cy="-112.69" rx="18" ry="18"/>
<text text-anchor="middle" x="443.77" y="-108.49" font-family="Times,serif" font-size="14.00">2</text>
</g>
<!-- 3 -->
<g id="node5" class="node">
<title>3</title>
<ellipse fill="none" stroke="black" cx="522.77" cy="-112.69" rx="18" ry="18"/>
<text text-anchor="middle" x="522.77" y="-108.49" font-family="Times,serif" font-size="14.00">3</text>
</g>
<!-- 2&#45;&gt;3 -->
<g id="edge4" class="edge">
<title>2-&gt;3</title>
<path fill="none" stroke="black" d="M462.25,-112.69C471.3,-112.69 482.6,-112.69 492.91,-112.69"/>
<polygon fill="black" stroke="black" points="492.86,-116.19 502.86,-112.69 492.86,-109.19 492.86,-116.19"/>
<text text-anchor="middle" x="483.27" y="-116.89" font-family="Times,serif" font-size="14.00">0</text>
</g>
<!-- 4 -->
<g id="node6" class="node">
<title>4</title>
<ellipse fill="none" stroke="black" cx="601.77" cy="-112.69" rx="18" ry="18"/>
<text text-anchor="middle" x="601.77" y="-108.49" font-family="Times,serif" font-size="14.00">4</text>
</g>
<!-- 3&#45;&gt;4 -->
<g id="edge5" class="edge">
<title>3-&gt;4</title>
<path fill="none" stroke="black" d="M541.25,-112.69C550.3,-112.69 561.6,-112.69 571.91,-112.69"/>
<polygon fill="black" stroke="black" points="571.86,-116.19 581.86,-112.69 571.86,-109.19 571.86,-116.19"/>
<text text-anchor="middle" x="562.27" y="-116.89" font-family="Times,serif" font-size="14.00">1</text>
</g>
<!-- 9 -->
<g id="node11" class="node">
<title>9</title>
<ellipse fill="none" stroke="black" cx="680.77" cy="-85.69" rx="18" ry="18"/>
<text text-anchor="middle" x="680.77" y="-81.49" font-family="Times,serif" font-size="14.00">9</text>
</g>
<!-- 4&#45;&gt;9 -->
<g id="edge6" class="edge">
<title>4-&gt;9</title>
<path fill="none" stroke="red" d="M619.1,-106.97C628.9,-103.53 641.61,-99.07 652.86,-95.13"/>
<polygon fill="red" stroke="red" points="653.76,-98.52 662.04,-91.91 651.44,-91.92 653.76,-98.52"/>
<text text-anchor="middle" x="641.27" y="-104.2" font-family="Times,serif" font-size="14.00">ε</text>
</g>
<!-- 5 -->
<g id="node7" class="node">
<title>5</title>
<ellipse fill="none" stroke="black" cx="443.77" cy="-58.69" rx="18" ry="18"/>
<text text-anchor="middle" x="443.77" y="-54.49" font-family="Times,serif" font-size="14.00">5</text>
</g>
<!-- 6 -->
<g id="node8" class="node">
<title>6</title>
<ellipse fill="none" stroke="black" cx="522.77" cy="-58.69" rx="18" ry="18"/>
<text text-anchor="middle" x="522.77" y="-54.49" font-family="Times,serif" font-size="14.00">6</text>
</g>
<!-- 5&#45;&gt;6 -->
<g id="edge7" class="edge">
<title>5-&gt;6</title>
<path fill="none" stroke="black" d="M462.25,-58.69C471.3,-58.69 482.6,-58.69 492.91,-58.69"/>
<polygon fill="black" stroke="black" points="492.86,-62.19 502.86,-58.69 492.86,-55.19 492.86,-62.19"/>
<text text-anchor="middle" x="483.27" y="-62.89" font-family="Times,serif" font-size="14.00">1</text>
</g>
<!-- 7 -->
<g id="node9" class="node">
<title>7</title>
<ellipse fill="none" stroke="black" cx="601.77" cy="-58.69" rx="18" ry="18"/>
<text text-anchor="middle" x="601.77" y="-54.49" font-family="Times,serif" font-size="14.00">7</text>
</g>
<!-- 6&#45;&gt;7 -->
<g id="edge8" class="edge">
<title>6-&gt;7</title>
<path fill="none" stroke="black" d="M541.25,-58.69C550.3,-58.69 561.6,-58.69 571.91,-58.69"/>
<polygon fill="black" stroke="black" points="571.86,-62.19 581.86,-58.69 571.86,-55.19 571.86,-62.19"/>
<text text-anchor="middle" x="562.27" y="-62.89" font-family="Times,serif" font-size="14.00">0</text>
</g>
<!-- 7&#45;&gt;9 -->
<g id="edge9" class="edge">
<title>7-&gt;9</title>
<path fill="none" stroke="red" d="M619.1,-64.42C628.9,-67.86 641.61,-72.31 652.86,-76.26"/>
<polygon fill="red" stroke="red" points="651.44,-79.47 662.04,-79.47 653.76,-72.86 651.44,-79.47"/>
<text text-anchor="middle" x="641.27" y="-77.2" font-family="Times,serif" font-size="14.00">ε</text>
</g>
<!-- 8&#45;&gt;2 -->
<g id="edge10" class="edge">
<title>8-&gt;2</title>
<path fill="none" stroke="red" d="M382.1,-91.42C391.9,-94.86 404.61,-99.31 415.86,-103.26"/>
<polygon fill="red" stroke="red" points="414.44,-106.47 425.04,-106.47 416.76,-99.86 414.44,-106.47"/>
<text text-anchor="middle" x="404.27" y="-104.2" font-family="Times,serif" font-size="14.00">ε</text>
</g>
<!-- 8&#45;&gt;5 -->
<g id="edge11" class="edge">
<title>8-&gt;5</title>
<path fill="none" stroke="red" d="M382.1,-79.97C391.9,-76.53 404.61,-72.07 415.86,-68.13"/>
<polygon fill="red" stroke="red" points="416.76,-71.52 425.04,-64.91 414.44,-64.92 416.76,-71.52"/>
<text text-anchor="middle" x="404.27" y="-77.2" font-family="Times,serif" font-size="14.00">ε</text>
</g>
<!-- 10 -->
<g id="node13" class="node">
<title>10</title>
<ellipse fill="none" stroke="black" cx="766.47" cy="-85.69" rx="20.69" ry="20.69"/>
<ellipse fill="none" stroke="black" cx="766.47" cy="-85.69" rx="24.69" ry="24.69"/>
<text text-anchor="middle" x="766.47" y="-81.49" font-family="Times,serif" font-size="14.00">10</text>
</g>
<!-- 9&#45;&gt;10 -->
<g id="edge12" class="edge">
<title>9-&gt;10</title>
<path fill="none" stroke="black" d="M699.12,-85.69C708.12,-85.69 719.45,-85.69 730.2,-85.69"/>
<polygon fill="black" stroke="black" points="729.97,-89.19 739.97,-85.69 729.97,-82.19 729.97,-89.19"/>
<text text-anchor="middle" x="720.27" y="-89.89" font-family="Times,serif" font-size="14.00">1</text>
</g>
<!-- 12&#45;&gt;0 -->
<g id="edge13" class="edge">
<title>12-&gt;0</title>
<path fill="none" stroke="red" d="M131.01,-53.39C143.29,-59.21 159.62,-66.96 173.21,-73.42"/>
<polygon fill="red" stroke="red" points="171.49,-76.47 182.03,-77.6 174.49,-70.15 171.49,-76.47"/>
<text text-anchor="middle" x="153.89" y="-69.39" font-family="Times,serif" font-size="14.00">ε</text>
</g>
<!-- 11 -->
<g id="node14" class="node">
<title>11</title>
<ellipse fill="none" stroke="black" cx="200.08" cy="-24.69" rx="20.69" ry="20.69"/>
<ellipse fill="none" stroke="black" cx="200.08" cy="-24.69" rx="24.69" ry="24.69"/>
<text text-anchor="middle" x="200.08" y="-20.49" font-family="Times,serif" font-size="14.00">11</text>
</g>
<!-- 12&#45;&gt;11 -->
<g id="edge14" class="edge">
<title>12-&gt;11</title>
<path fill="none" stroke="red" d="M132.25,-40.11C138.09,-38.75 144.5,-37.26 150.39,-35.89 155.05,-34.81 159.96,-33.68 164.79,-32.57"/>
<polygon fill="red" stroke="red" points="165.36,-36.03 174.32,-30.37 163.79,-29.2 165.36,-36.03"/>
<text text-anchor="middle" x="153.89" y="-40.09" font-family="Times,serif" font-size="14.00">ε</text>
</g>
</g>
</svg>