<svg width="301pt" height="114pt" viewBox="0.00 0.00 301.00 114.00" xmlns="http://www.w3.org/2000/svg" xmlns:xlink="http://www.w3.org/1999/xlink">
<g id="graph0" class="graph" transform="scale(1 1) rotate(0) translate(4 110)">
<title>finite_state_machine</title>
<polygon fill="white" stroke="none" points="-4,4 -4,-110 297,-110 297,4 -4,4"/>
<!-- start -->
<g id="node1" class="node">
<title>start</title>
<text text-anchor="middle" x="27" y="-46.8" font-family="Times,serif" font-size="14.00">start</text>
</g>
<!-- 4 -->
<g id="node4" class="node">
<title>4</title>
<ellipse fill="none" stroke="black" cx="109" cy="-51" rx="18" ry="18"/>
<text text-anchor="middle" x="109" y="-46.8" font-family="Times,serif" font-size="14.00">4</text>
</g>
<!-- start&#45;&gt;4 -->
<g id="edge1" class="edge">
<title>start-&gt;4</title>
<path fill="none" stroke="black" d="M53.75,-51C61.85,-51 70.85,-51 79.16,-51"/>
<polygon fill="black" stroke="black" points="79.12,-54.5 89.12,-51 79.12,-47.5 79.12,-54.5"/>
</g>
<!-- 0 -->
<g id="node2" class="node">
<title>0</title>
<ellipse fill="none" stroke="black" cx="188" cy="-82" rx="18" ry="18"/>
<text text-anchor="middle" x="188" y="-77.8" font-family="Times,serif" font-size="14.00">0</text>
</g>
<!-- 1 -->
<g id="node5" class="node">
<title>1</title>
<ellipse fill="none" stroke="black" cx="271" cy="-84" rx="18" ry="18"/>
<ellipse fill="none" stroke="black" cx="271" cy="-84" rx="22" ry="22"/>
<text text-anchor="middle" x="271" y="-79.8" font-family="Times,serif" font-size="14.00">1</text>
</g>
<!-- 0&#45;&gt;1 -->
<g id="edge2" class="edge">
<title>0-&gt;1</title>
<path fill="none" stroke="black" d="M206.18,-82.42C215.15,-82.65 226.45,-82.92 237.03,-83.19"/>
<polygon fill="black" stroke="black" points="236.92,-86.68 247,-83.43 237.09,-79.69 236.92,-86.68"/>
<text text-anchor="middle" x="227.5" y="-87.2" font-family="Times,serif" font-size="14.00">a</text>
</g>
<!-- 2 -->
<g id="node3" class="node">
<title>2</title>
<ellipse fill="none" stroke="black" cx="188" cy="-24" rx="18" ry="18"/>
<text text-anchor="middle" x="188" y="-19.8" font-family="Times,serif" font-size="14.00">2</text>
</g>
<!-- 3 -->
<g id="node6" class="node">
<title>3</title>
<ellipse fill="none" stroke="black" cx="271" cy="-22" rx="18" ry="18"/>
<ellipse fill="none" stroke="black" cx="271" cy="-22" rx="22" ry="22"/>
<text text-anchor="middle" x="271" y="-17.8" font-family="Times,serif" font-size="14.00">3</text>
</g>
<!-- 2&#45;&gt;3 -->
<g id="edge3" class="edge">
<title>2-&gt;3</title>
<path fill="none" stroke="black" d="M206.18,-23.58C215.15,-23.35 226.45,-23.08 237.03,-22.81"/>
<polygon fill="black" stroke="black" points="237.09,-26.31 247,-22.57 236.92,-19.32 237.09,-26.31"/>
<text text-anchor="middle" x="227.5" y="-27.32" font-family="Times,serif" font-size="14.00">b</text>
</g>
<!-- 4&#45;&gt;0 -->
<g id="edge4" class="edge">
<title>4-&gt;0</title>
<path fill="none" stroke="red" d="M125.95,-57.42C135.9,-61.43 148.95,-66.68 160.43,-71.3"/>
<polygon fill="red" stroke="red" points="158.81,-74.43 169.4,-74.91 161.43,-67.93 158.81,-74.43"/>
<text text-anchor="middle" x="148.5" y="-71.63" font-family="Times,serif" font-size="14.00">ε</text>
</g>
<!-- 4&#45;&gt;2 -->
<g id="edge5" class="edge">
<title>4-&gt;2</title>
<path fill="none" stroke="red" d="M125.46,-43.37C131.47,-40.57 138.47,-37.53 145,-35.2 149.56,-33.58 154.47,-32.06 159.27,-30.71"/>
<polygon fill="red" stroke="red" points="159.82,-34.18 168.59,-28.24 158.02,-27.42 159.82,-34.18"/>
<text text-anchor="middle" x="148.5" y="-39.4" font-family="Times,serif" font-size="14.00">ε</text>
</g>
</g>
</svg>